# xmcd CD database file
#
# Track frame offsets:
#	150
#	13370
#	28937
#	43020
#	58495
#	75975
#	88962
#	103700
#	118815
#	133340
#	152207
#	165907
#	181507
#	195670
#	208785
#	221895
#
# Disc length: 3131 seconds
#
# Revision: 0
# Processed by: cddbd v1.4PL0 Copyright (c) Steve Scherf et al.
# Submitted via: CDex 1.50beta10
#
DISCID=eb0c3910
DTITLE=Various Artist - 典藏國語老歌十
DYEAR=1900
DGENRE=國語老歌
TTITLE0=何日君再來
TTITLE1=往事只能回味
TTITLE2=昨夜你對我一笑
TTITLE3=美酒加咖啡
TTITLE4=回想起
TTITLE5=庭院深深
TTITLE6=月滿西樓
TTITLE7=煙雨斜陽
TTITLE8=月落烏啼
TTITLE9=紅樓夢
TTITLE10=神話
TTITLE11=綠島小夜曲
TTITLE12=愛的禮物
TTITLE13=愛我在今霄
TTITLE14=祝你幸福
TTITLE15=晚安曲
EXTD=
EXTT0=
EXTT1=
EXTT2=
EXTT3=
EXTT4=
EXTT5=
EXTT6=
EXTT7=
EXTT8=
EXTT9=
EXTT10=
EXTT11=
EXTT12=
EXTT13=
EXTT14=
EXTT15=
PLAYORDER=
